NotoSerif-CondensedLightItalic.ufo
<glyph name="hyphen" format="2">
  <advance width="244"/>
  <unicode hex="002D"/>
  <outline>
    <contour>
      <point x="17" y="255" type="line"/>
      <point x="221" y="255" type="line"/>
      <point x="227" y="281" type="line"/>
      <point x="23" y="281" type="line"/>
    </contour>
  </outline>
</glyph>
<glyph name="Hbar" format="2">
  <advance width="602"/>
  <unicode hex="0126"/>
  <anchor x="244" y="0" name="bottom"/>
  <anchor x="396" y="714" name="top"/>
  <anchor x="339" y="357" name="center"/>
  <anchor x="677" y="714" name="topright"/>
  <outline>
    <contour>
      <point x="95" y="517" type="line"/>
      <point x="608" y="517" type="line"/>
      <point x="613" y="542" type="line"/>
      <point x="100" y="542" type="line"/>
    </contour>
    <component base="H"/>
  </outline>
</glyph>
<glyph name="lslash" format="2">
  <advance width="192"/>
  <unicode hex="0142"/>
  <anchor x="40" y="0" name="bottom"/>
  <anchor x="202" y="760" name="top"/>
  <anchor x="154" y="268" name="center"/>
  <anchor x="277" y="760" name="topright"/>
  <outline>
    <contour>
      <point x="-5" y="242" type="line"/>
      <point x="75" y="284" type="line"/>
      <point x="97" y="293" type="line"/>
      <point x="194" y="342" type="line"/>
      <point x="200" y="370" type="line"/>
      <point x="103" y="321" type="line"/>
      <point x="81" y="312" type="line"/>
      <point x="1" y="270" type="line"/>
    </contour>
    <component base="l"/>
  </outline>
</glyph>
<glyph name="uni0197" format="2">
  <advance width="264"/>
  <unicode hex="0197"/>
  <anchor x="73" y="0" name="bottom"/>
  <anchor x="225" y="714" name="top"/>
  <anchor x="334" y="714" name="topright"/>
  <outline>
    <contour>
      <point x="42" y="366" type="line"/>
      <point x="259" y="366" type="line"/>
      <point x="264" y="391" type="line"/>
      <point x="47" y="391" type="line"/>
    </contour>
    <component base="I"/>
  </outline>
</glyph>
<glyph name="uni019B" format="2">
  <advance width="385"/>
  <unicode hex="019B"/>
  <anchor x="135" y="0" name="bottom"/>
  <anchor x="299" y="770" name="top"/>
  <outline>
    <contour>
      <point x="149" y="546" type="line"/>
      <point x="363" y="678" type="line"/>
      <point x="367" y="710" type="line"/>
      <point x="154" y="579" type="line"/>
    </contour>
    <component base="lambda"/>
  </outline>
</glyph>
<glyph name="uni01B5" format="2">
  <advance width="419"/>
  <unicode hex="01B5"/>
  <anchor x="153.009" y="0" name="bottom"/>
  <anchor x="305.009" y="714" name="top"/>
  <anchor x="494" y="714" name="topright"/>
  <outline>
    <contour>
      <point x="88" y="362" type="line"/>
      <point x="209" y="362" type="line"/>
      <point x="217" y="362" type="line"/>
      <point x="358" y="362" type="line"/>
      <point x="363" y="387" type="line"/>
      <point x="242" y="387" type="line"/>
      <point x="221" y="387" type="line"/>
      <point x="93" y="387" type="line"/>
    </contour>
    <component base="Z"/>
  </outline>
</glyph>
<glyph name="uni01E4" format="2">
  <advance width="513"/>
  <unicode hex="01E4"/>
  <anchor x="187" y="0" name="bottom"/>
  <anchor x="339" y="714" name="top"/>
  <anchor x="563" y="714" name="topright"/>
  <outline>
    <contour>
      <point x="247" y="195" type="line"/>
      <point x="475" y="195" type="line"/>
      <point x="481" y="223" type="line"/>
      <point x="253" y="223" type="line"/>
    </contour>
    <component base="G"/>
  </outline>
</glyph>
<glyph name="uni023D" format="2">
  <advance width="462"/>
  <unicode hex="023D"/>
  <anchor x="174" y="0" name="bottom"/>
  <anchor x="326" y="714" name="top"/>
  <anchor x="269" y="357" name="center"/>
  <anchor x="537" y="714" name="topright"/>
  <outline>
    <contour>
      <point x="63" y="363" type="line"/>
      <point x="135" y="363" type="line"/>
      <point x="159" y="363" type="line"/>
      <point x="264" y="363" type="line"/>
      <point x="269" y="388" type="line"/>
      <point x="164" y="388" type="line"/>
      <point x="141" y="388" type="line"/>
      <point x="68" y="388" type="line"/>
    </contour>
    <component base="L"/>
  </outline>
</glyph>
<glyph name="uni025F" format="2">
  <advance width="186"/>
  <unicode hex="025F"/>
  <anchor x="-15" y="-240" name="bottom"/>
  <anchor x="150" y="536" name="top"/>
  <anchor x="208" y="536" name="topright"/>
  <outline>
    <contour>
      <point x="6" y="268" type="line"/>
      <point x="180" y="268" type="line"/>
      <point x="185" y="293" type="line"/>
      <point x="11" y="293" type="line"/>
    </contour>
    <component base="jdotless"/>
  </outline>
</glyph>
<glyph name="uni0374" format="2">
  <advance width="120"/>
  <unicode hex="0374"/>
  <outline>
    <contour>
      <point x="91" y="573" type="line"/>
      <point x="102" y="573" type="line"/>
      <point x="118" y="600"/>
      <point x="149" y="664"/>
      <point x="167" y="706" type="curve"/>
      <point x="164" y="714" type="line"/>
      <point x="135" y="714" type="line"/>
      <point x="117" y="653"/>
      <point x="104" y="619"/>
      <point x="92" y="583" type="curve"/>
    </contour>
  </outline>
</glyph>
<glyph name="uni04B8" format="2">
  <advance width="534"/>
  <unicode hex="04B8"/>
  <anchor x="227" y="0" name="bottom"/>
  <anchor x="379" y="714" name="top"/>
  <outline>
    <contour>
      <point x="192" y="124" type="line"/>
      <point x="218" y="124" type="line"/>
      <point x="297" y="494" type="line"/>
      <point x="271" y="494" type="line"/>
    </contour>
    <component base="afii10041"/>
  </outline>
</glyph>
<glyph name="uni04BE" format="2">
  <advance width="553"/>
  <unicode hex="04BE"/>
  <anchor x="202" y="-210" name="bottom"/>
  <anchor x="399" y="714" name="top"/>
  <outline>
    <contour>
      <point x="233" y="-210" type="curve"/>
      <point x="253" y="-210" type="line"/>
      <point x="288" y="-51"/>
      <point x="297" y="-12"/>
      <point x="343" y="-3" type="curve"/>
      <point x="232" y="-3" type="line"/>
      <point x="252" y="-8"/>
      <point x="256" y="-21"/>
      <point x="256" y="-53" type="curve" smooth="yes"/>
      <point x="256" y="-84"/>
      <point x="248" y="-141"/>
    </contour>
    <component base="uni04BC"/>
  </outline>
</glyph>
<glyph name="uni04FE" format="2">
  <advance width="453"/>
  <unicode hex="04FE"/>
  <anchor x="169" y="0" name="bottom"/>
  <anchor x="321" y="714" name="top"/>
  <anchor x="528" y="714" name="topright"/>
  <outline>
    <contour>
      <point x="70" y="363" type="line"/>
      <point x="431" y="363" type="line"/>
      <point x="436" y="388" type="line"/>
      <point x="75" y="388" type="line"/>
    </contour>
    <component base="X"/>
  </outline>
</glyph>
<glyph name="uni04FF" format="2">
  <advance width="375"/>
  <unicode hex="04FF"/>
  <anchor x="131" y="0" name="bottom"/>
  <anchor x="245" y="536" name="top"/>
  <anchor x="412" y="536" name="topright"/>
  <outline>
    <contour>
      <point x="58" y="276" type="line"/>
      <point x="331" y="276" type="line"/>
      <point x="336" y="301" type="line"/>
      <point x="63" y="301" type="line"/>
    </contour>
    <component base="x"/>
  </outline>
</glyph>
<glyph name="uni051F" format="2">
  <advance width="402"/>
  <unicode hex="051F"/>
  <anchor x="171" y="0" name="bottom"/>
  <anchor x="285" y="536" name="top"/>
  <outline>
    <contour>
      <point x="352" y="334" type="line"/>
      <point x="368" y="353" type="line"/>
      <point x="212" y="490" type="line"/>
      <point x="196" y="471" type="line"/>
    </contour>
    <component base="afii10076"/>
  </outline>
</glyph>
<glyph name="uni1D13" format="2">
  <advance width="607"/>
  <unicode hex="1D13"/>
  <anchor x="247" y="0" name="bottom"/>
  <anchor x="361" y="536" name="top"/>
  <outline>
    <contour>
      <point x="573" y="1" type="line"/>
      <point x="573" y="33" type="line"/>
      <point x="35" y="528" type="line"/>
      <point x="35" y="496" type="line"/>
    </contour>
    <component base="uni1D11"/>
  </outline>
</glyph>
<glyph name="graveacutegrave" format="2">
  <unicode hex="1DC8"/>
  <anchor x="89" y="536" name="_top"/>
  <anchor x="121" y="731" name="top"/>
  <outline>
    <contour>
      <point x="47" y="620" type="line"/>
      <point x="190" y="691" type="line"/>
      <point x="268" y="629" type="line"/>
      <point x="279" y="664" type="line"/>
      <point x="188" y="731" type="line"/>
      <point x="49" y="663" type="line"/>
      <point x="-30" y="725" type="line"/>
      <point x="-42" y="690" type="line"/>
    </contour>
  </outline>
</glyph>
<glyph name="uni1FDD" format="2">
  <advance width="55"/>
  <unicode hex="1FDD"/>
  <anchor x="74" y="536" name="_top"/>
  <anchor x="98" y="724" name="top"/>
  <outline>
    <contour>
      <point x="87" y="573" type="curve"/>
      <point x="91" y="593" type="line"/>
      <point x="52" y="598"/>
      <point x="40" y="618"/>
      <point x="40" y="639" type="curve" smooth="yes"/>
      <point x="40" y="684"/>
      <point x="88" y="677"/>
      <point x="88" y="718" type="curve" smooth="yes"/>
      <point x="88" y="732"/>
      <point x="80" y="742"/>
      <point x="63" y="742" type="curve" smooth="yes"/>
      <point x="32" y="742"/>
      <point x="16" y="695"/>
      <point x="16" y="650" type="curve" smooth="yes"/>
      <point x="16" y="607"/>
      <point x="36" y="580"/>
    </contour>
    <contour>
      <point x="161" y="580" type="curve"/>
      <point x="173" y="580" type="line"/>
      <point x="175" y="589" type="line"/>
      <point x="156" y="641"/>
      <point x="144" y="679"/>
      <point x="142" y="734" type="curve"/>
      <point x="115" y="734" type="line"/>
      <point x="111" y="724" type="line"/>
      <point x="118" y="675"/>
      <point x="132" y="635"/>
    </contour>
  </outline>
</glyph>
<glyph name="uni2012" format="2">
  <advance width="440"/>
  <unicode hex="2012"/>
  <outline>
    <contour>
      <point x="60" y="365" type="line"/>
      <point x="409" y="365" type="line"/>
      <point x="414" y="390" type="line"/>
      <point x="65" y="390" type="line"/>
    </contour>
  </outline>
</glyph>
<glyph name="uni2C61" format="2">
  <advance width="192"/>
  <unicode hex="2C61"/>
  <anchor x="39" y="0" name="bottom"/>
  <anchor x="201" y="760" name="top"/>
  <anchor x="154" y="268" name="center"/>
  <anchor x="277" y="760" name="topright"/>
  <outline>
    <contour>
      <point x="4" y="280" type="line"/>
      <point x="171" y="280" type="line"/>
      <point x="176" y="305" type="line"/>
      <point x="101" y="305" type="line"/>
      <point x="120" y="390" type="line"/>
      <point x="196" y="390" type="line"/>
      <point x="201" y="415" type="line"/>
      <point x="33" y="415" type="line"/>
      <point x="28" y="390" type="line"/>
      <point x="99" y="390" type="line"/>
      <point x="80" y="305" type="line"/>
      <point x="9" y="305" type="line"/>
    </contour>
    <component base="l"/>
  </outline>
</glyph>
<glyph name="uni2C66" format="2">
  <advance width="243"/>
  <unicode hex="2C66"/>
  <anchor x="21" y="-209" name="bottom"/>
  <anchor x="217" y="714" name="top"/>
  <anchor x="179" y="268" name="center"/>
  <anchor x="281" y="536" name="topright"/>
  <outline>
    <contour>
      <point x="-11" y="-209" type="line"/>
      <point x="13" y="-209" type="line"/>
      <point x="306" y="714" type="line"/>
      <point x="282" y="714" type="line"/>
    </contour>
    <component base="t"/>
  </outline>
</glyph>
<glyph name="uniA742" format="2">
  <advance width="514"/>
  <unicode hex="A742"/>
  <anchor x="200" y="0" name="bottom"/>
  <anchor x="352" y="714" name="top"/>
  <anchor x="589" y="714" name="topright"/>
  <outline>
    <contour>
      <point x="245" y="118" type="line"/>
      <point x="428" y="253" type="line"/>
      <point x="414" y="274" type="line"/>
      <point x="231" y="138" type="line"/>
    </contour>
    <component base="K"/>
  </outline>
</glyph>
<glyph name="uniA749" format="2">
  <advance width="192"/>
  <unicode hex="A749"/>
  <anchor x="40" y="0" name="bottom"/>
  <anchor x="154" y="268" name="center"/>
  <anchor x="202" y="760" name="top"/>
  <anchor x="277" y="760" name="topright"/>
  <outline>
    <contour>
      <point x="78" y="621" type="line"/>
      <point x="251" y="621" type="line"/>
      <point x="256" y="646" type="line"/>
      <point x="83" y="646" type="line"/>
    </contour>
    <component base="l"/>
  </outline>
</glyph>
<glyph name="uniA7A4" format="2">
  <advance width="583"/>
  <unicode hex="A7A4"/>
  <anchor x="232" y="0" name="bottom"/>
  <anchor x="384" y="714" name="top"/>
  <anchor x="652" y="714" name="topright"/>
  <outline>
    <contour>
      <point x="17" y="272" type="line"/>
      <point x="602" y="437" type="line"/>
      <point x="609" y="465" type="line"/>
      <point x="24" y="300" type="line"/>
    </contour>
    <component base="N"/>
  </outline>
</glyph>
<glyph name="uniAB3F" format="2">
  <advance width="345"/>
  <unicode hex="AB3F"/>
  <anchor x="208" y="536" name="bottom"/>
  <anchor x="96" y="0" name="top"/>
  <anchor x="-38" y="0" name="topright"/>
  <outline>
    <contour>
      <point x="-14" y="-66" type="line"/>
      <point x="14" y="-66" type="line" smooth="yes"/>
      <point x="341" y="562" type="line"/>
      <point x="313" y="562" type="line"/>
    </contour>
    <component base="c" xScale="-1" yScale="-1" xOffset="344" yOffset="536"/>
  </outline>
</glyph>
<glyph name="uniFE21" format="2">
  <unicode hex="FE21"/>
  <anchor x="29" y="536" name="_top"/>
  <outline>
    <contour>
      <point x="337" y="597" type="curve"/>
      <point x="358" y="597" type="line"/>
      <point x="319" y="696"/>
      <point x="231" y="736"/>
      <point x="111" y="736" type="curve" smooth="yes"/>
      <point x="71" y="736" type="line"/>
      <point x="71" y="711" type="line"/>
      <point x="110" y="711" type="line" smooth="yes"/>
      <point x="223" y="711"/>
      <point x="302" y="676"/>
    </contour>
  </outline>
</glyph>
<glyph name="oslash.sc" format="2">
  <advance width="465"/>
  <anchor x="166" y="0" name="bottom"/>
  <anchor x="288" y="571" name="top"/>
  <anchor x="233" y="286" name="center"/>
  <anchor x="506" y="571" name="topright"/>
  <outline>
    <contour>
      <point x="20" y="-33" type="line"/>
      <point x="49" y="-33" type="line"/>
      <point x="434" y="603" type="line"/>
      <point x="409" y="603" type="line"/>
    </contour>
    <component base="o.sc"/>
  </outline>
</glyph>
